name Walk7.mot
datacolumns 19
datarows 17
range 1.64600000 1.66200000
endheader

                time	   L_ground_force_vx	   L_ground_force_vy	   L_ground_force_vz	   L_ground_force_px	   L_ground_force_py	   L_ground_force_pz	   R_ground_force_vx	   R_ground_force_vy	   R_ground_force_vz	   R_ground_force_px	   R_ground_force_py	   R_ground_force_pz	   L_ground_torque_x	   L_ground_torque_y	   L_ground_torque_z	   R_ground_torque_x	   R_ground_torque_y	   R_ground_torque_z	
          1.64600000	         30.78005675	        953.39645336	         73.85711129	         -0.15685656	          0.00000000	         -0.07069210	         -0.01803901	          0.28474204	          0.01794289	          0.00028061	          0.00000000	          0.00007022	          0.00000000	         -2.41957299	          0.00000000	          0.00000000	          0.00184749	          0.00000000	
          1.64700000	         31.54616521	        955.48843511	         74.08283973	         -0.15668371	          0.00000000	         -0.07071026	         -0.02001848	          0.30693976	          0.01929800	          0.00029695	          0.00000000	          0.00007423	          0.00000000	         -2.44319006	          0.00000000	          0.00000000	          0.00212318	          0.00000000	
          1.64800000	         32.31888916	        957.58385439	         74.30719236	         -0.15651164	          0.00000000	         -0.07072801	         -0.02209922	          0.32993257	          0.02069933	          0.00031358	          0.00000000	          0.00007831	          0.00000000	         -2.46677176	          0.00000000	          0.00000000	          0.00241573	          0.00000000	
          1.64900000	         33.09863292	        959.68218960	         74.53000590	         -0.15634036	          0.00000000	         -0.07074537	         -0.02428204	          0.35369940	          0.02214539	          0.00033046	          0.00000000	          0.00008244	          0.00000000	         -2.49030956	          0.00000000	          0.00000000	          0.00272548	          0.00000000	
          1.65000000	         33.88580175	        961.78290941	         74.75111950	         -0.15616990	          0.00000000	         -0.07076233	         -0.02656742	          0.37821401	          0.02363437	          0.00034755	          0.00000000	          0.00008662	          0.00000000	         -2.51379486	          0.00000000	          0.00000000	          0.00305275	          0.00000000	
          1.65100000	         34.68079860	        963.88547374	         74.97037661	         -0.15600026	          0.00000000	         -0.07077890	         -0.02895544	          0.40344466	          0.02516411	          0.00036479	          0.00000000	          0.00009082	          0.00000000	         -2.53721913	          0.00000000	          0.00000000	          0.00339784	          0.00000000	
          1.65200000	         35.48402106	        965.98933363	         75.18762665	         -0.15583145	          0.00000000	         -0.07079508	         -0.03144579	          0.42935367	          0.02673207	          0.00038212	          0.00000000	          0.00009504	          0.00000000	         -2.56057402	          0.00000000	          0.00000000	          0.00376095	          0.00000000	
          1.65300000	         36.29585888	        968.09392973	         75.40272640	         -0.15566350	          0.00000000	         -0.07081087	         -0.03403769	          0.45589709	          0.02833533	          0.00039949	          0.00000000	          0.00009927	          0.00000000	         -2.58385132	          0.00000000	          0.00000000	          0.00414228	          0.00000000	
          1.65400000	         37.11669138	        970.19868941	         75.61554104	         -0.15549641	          0.00000000	         -0.07082627	         -0.03672987	          0.48302425	          0.02997055	          0.00041682	          0.00000000	          0.00010347	          0.00000000	         -2.60704290	          0.00000000	          0.00000000	          0.00454194	          0.00000000	
          1.65500000	         37.94688463	        972.30302301	         75.82594487	         -0.15533020	          0.00000000	         -0.07084127	         -0.03952052	          0.51067735	          0.03163395	          0.00043404	          0.00000000	          0.00010764	          0.00000000	         -2.63014039	          0.00000000	          0.00000000	          0.00495997	          0.00000000	
          1.65600000	         38.78678794	        974.40632020	         76.03382197	         -0.15516490	          0.00000000	         -0.07085588	         -0.04240729	          0.53879106	          0.03332128	          0.00045106	          0.00000000	          0.00011175	          0.00000000	         -2.65313483	          0.00000000	          0.00000000	          0.00539637	          0.00000000	
          1.65700000	         39.63673012	        976.50794782	         76.23906693	         -0.15500050	          0.00000000	         -0.07087009	         -0.04538716	          0.56729208	          0.03502779	          0.00046781	          0.00000000	          0.00011578	          0.00000000	         -2.67601627	          0.00000000	          0.00000000	          0.00585103	          0.00000000	
          1.65800000	         40.49701600	        978.60725004	         76.44158573	         -0.15483702	          0.00000000	         -0.07088390	         -0.04845650	          0.59609870	          0.03674821	          0.00048418	          0.00000000	          0.00011970	          0.00000000	         -2.69877346	          0.00000000	          0.00000000	          0.00632378	          0.00000000	
          1.65900000	         41.36792373	        980.70355112	         76.64129665	         -0.15467446	          0.00000000	         -0.07089732	         -0.05161094	          0.62512034	          0.03847674	          0.00050007	          0.00000000	          0.00012350	          0.00000000	         -2.72139379	          0.00000000	          0.00000000	          0.00681434	          0.00000000	
          1.66000000	         42.24970289	        982.79615992	         76.83813106	         -0.15451283	          0.00000000	         -0.07091034	         -0.05484535	          0.65425713	          0.04020698	          0.00051537	          0.00000000	          0.00012714	          0.00000000	         -2.74386343	          0.00000000	          0.00000000	          0.00732234	          0.00000000	
          1.66100000	         43.14257339	        984.88437477	         77.03203399	         -0.15435211	          0.00000000	         -0.07092297	         -0.05815381	          0.68339943	          0.04193196	          0.00052997	          0.00000000	          0.00013060	          0.00000000	         -2.76616760	          0.00000000	          0.00000000	          0.00784731	          0.00000000	
          1.66200000	         44.04672480	        986.96748736	         77.22296439	         -0.15419231	          0.00000000	         -0.07093521	         -0.06152954	          0.71242740	          0.04364406	          0.00054374	          0.00000000	          0.00013383	          0.00000000	         -2.78829088	          0.00000000	          0.00000000	          0.00838865	          0.00000000	
